<?xml version="1.0" encoding="UTF-8"?>
<svg width="1000px" height="1000px" viewBox="0 0 1000 1000" version="1.1" xmlns="http://www.w3.org/2000/svg" xmlns:xlink="http://www.w3.org/1999/xlink">
    <title>Favicon - One Color</title>
    <g id="Favicon---One-Color" stroke="none" stroke-width="1" fill="none" fill-rule="evenodd">
        <rect fill="#FFFFFF" x="0" y="0" width="1000" height="1000"></rect>
        <g id="Group" transform="translate(198.428260, 150.000000)" fill="#000000">
            <path d="M49.9505953,586.781223 L598.833851,586.781223 C600.490705,586.781223 601.833851,588.124369 601.833851,589.781223 C601.833851,590.181998 601.753548,590.578711 601.597685,590.947937 L556.336789,698.166714 C555.86776,699.2778 554.778982,700 553.572955,700 L4.52900126,700 C2.87214701,700 1.52900126,698.656854 1.52900126,697 C1.52900126,696.59794 1.60981911,696.199983 1.76665271,695.829773 L47.1882467,588.610996 C47.6581473,587.501784 48.7459553,586.781223 49.9505953,586.781223 Z" id="Rectangle"></path>
            <path d="M179.80016,505 L179.80016,200.295482 C179.80016,199.743197 180.247875,199.295482 180.80016,199.295482 C181.106895,199.295482 181.396663,199.436256 181.586257,199.67738 L423.117106,506.854307 C423.685888,507.57768 424.555192,508 425.475398,508 L552.57174,508 C554.228594,508 555.57174,506.656854 555.57174,505 L555.57174,3 C555.57174,1.34314575 554.228594,-7.48448398e-16 552.57174,0 L427.017955,0 C425.361101,3.04359188e-16 424.017955,1.34314575 424.017955,3 L424.017955,307.704518 C424.017955,308.256803 423.57024,308.704518 423.017955,308.704518 C422.711219,308.704518 422.421451,308.563744 422.231857,308.32262 L180.701009,1.14569267 C180.132227,0.42232047 179.262923,-5.94219895e-15 178.342716,0 L50.5717399,0 C48.9148856,3.04359188e-16 47.5717399,1.34314575 47.5717399,3 L47.5717399,505 C47.5717399,506.656854 48.9148856,508 50.5717399,508 L176.80016,508 C178.457014,508 179.80016,506.656854 179.80016,505 Z" id="Path" fill-rule="nonzero"></path>
        </g>
    </g>
</svg>