<?xml version="1.0" encoding="UTF-8"?>
<svg width="552px" height="1017px" viewBox="0 0 552 1017" version="1.1" xmlns="http://www.w3.org/2000/svg" xmlns:xlink="http://www.w3.org/1999/xlink">
    <!-- Generator: Sketch 63.1 (92452) - https://sketch.com -->
    <title>Pink_vertical_ninelabs_logo</title>
    <desc>Created with Sketch.</desc>
    <defs>
        <polygon id="path-1" points="31.5 0.1 116.1 100.6 116.1 0.1 152.1 0.1 152.1 156.1 120.9 156.1 36.3 55 36.3 156.1 0.3 156.1 0.3 0.1"></polygon>
        <path d="M36.7,64.7 L36.7,169.1 L3.1,169.1 L3.1,64.7 L36.7,64.7 Z M19.9,0.8 C31,0.8 39.4,9.5 39.4,20.3 C39.4,31.1 30.7,39.8 19.9,39.8 C9.1,39.8 0.4,31.1 0.4,20.3 C0.4,9.5 8.8,0.8 19.9,0.8 Z" id="path-3"></path>
        <path d="M66.2,0.7 C75.2,0.7 87.2,2.2 96.2,11.2 C106.1,21.1 106.7,33.4 106.7,41.8 L106.7,107.8 L73.1,107.8 L73.1,54.1 C73.1,47.2 72.8,38.8 67.4,33.4 C64.7,30.7 60.5,28.6 54.5,28.6 C47.6,28.6 43.1,31.3 40.4,34.3 C34.7,40 33.8,47.5 33.8,54.1 L33.8,107.8 L0.2,107.8 L0.2,3.7 L33.8,3.7 L33.8,16 C44,2.8 56.3,0.7 66.2,0.7 Z" id="path-5"></path>
        <path d="M56.2,0.4 C67.9,0.4 84.7,2.5 97.6,16 C109.9,29.2 112.3,45.4 112.3,58.3 L112.6,61.9 L34.6,61.9 C34.6,67.6 36.7,75.1 40.9,79.6 C46,85.3 53.2,86.2 58.3,86.2 C63.1,86.2 68.5,85.3 71.8,83.2 C72.4,82.9 76.3,80.5 79,74.5 L110.8,77.8 C106,92.5 96.7,100.3 90.7,103.9 C80.5,109.9 69.4,111.7 57.7,111.7 C42.1,111.7 28.3,109 16,96.7 C7,87.7 0.4,73.9 0.4,56.5 C0.4,41.5 5.8,26.2 16.3,15.4 C28.9,2.8 44.5,0.4 56.2,0.4 Z M58.9,23.8 C50.2,23.8 45.1,27.4 41.8,30.7 C39.1,33.4 37,37.3 36.1,41.8 L81.7,41.8 C81.4,40.9 79.9,34.3 74.8,29.5 C71.2,25.9 65.8,23.8 58.9,23.8 Z" id="path-7"></path>
        <polygon id="path-9" points="36.3 0.3 36.3 126 84.6 126 84.6 156.3 0.3 156.3 0.3 0.3"></polygon>
        <path d="M52.5,0.9 C61.5,0.9 75.6,3 85.2,16.2 L85.2,4.2 L118.8,4.2 L118.8,108.6 L85.2,108.6 L85.2,96 C76.2,110.1 63,112.2 54.3,112.2 C39.3,112.2 26.7,108.6 15.3,96.3 C4.2,84.6 0,71.1 0,57.3 C0,39.9 6.6,24.9 16.2,15.3 C25.2,6.3 38.1,0.9 52.5,0.9 Z M60.3,29.7 C53.7,29.7 46.8,32.7 42.3,37.2 C38.7,40.8 34.5,46.8 34.5,56.1 C34.5,65.4 38.4,71.4 41.4,74.7 C46.2,79.5 53.4,82.8 61.2,82.8 C68.1,82.8 74.4,80.1 78.6,75.6 C83.1,71.4 86.7,64.8 86.7,56.1 C86.7,48.6 84,41.7 78.9,36.9 C73.8,32.1 66.3,29.7 60.3,29.7 Z" id="path-11"></path>
        <path d="M33.7,0.2 L33.7,77.9 C42.1,66.5 54.7,62.6 66.1,62.6 C80.5,62.6 93.1,68 102.4,76.7 C112.6,86.3 118.9,100.7 118.9,117.8 C118.9,134 113.2,149 102.4,159.8 C93.4,169.1 82,174.2 66.7,174.2 C48.1,174.2 38.8,165.5 33.7,158 L33.7,170.6 L0.1,170.6 L0.1,0.2 L33.7,0.2 Z M39.1,99.5 C35.2,103.7 31.6,109.7 31.6,118.7 C31.6,127.4 35.2,133.7 39.4,137.3 C44.8,142.4 52.3,145.1 58.6,145.1 C64.3,145.1 70.9,142.7 76,137.9 C80.8,133.1 84.1,126.5 84.1,118.7 C84.1,110.3 80.8,103.4 76,98.9 C70.6,93.8 64.9,92 58,92 C50.8,91.7 44.5,93.8 39.1,99.5 Z" id="path-13"></path>
        <path d="M49.3,0.9 C64.6,0.9 75.4,4.8 83.8,9.9 L70,30.9 C64.9,27.9 58,25.2 51.4,25.2 C47.8,25.2 43.9,26.1 41.8,28.2 C40.6,29.4 39.7,31.2 39.7,33 C39.7,35.4 41.2,36.6 43,37.8 C45.4,39.3 48.7,39.9 53.2,41.4 L62.2,44.1 C67.9,45.9 74.2,48.3 79.6,53.1 C85.6,58.8 87.7,65.1 87.7,72.9 C87.7,86.7 81.7,95.7 76.9,100.2 C66.7,110.4 54.1,112.2 43,112.2 C28.9,112.2 13.9,109.2 0.1,97.2 L14.5,74.4 C17.8,77.1 22.6,80.4 25.9,82.2 C30.7,84.6 35.5,85.5 40,85.5 L40.391263,85.4995522 C42.7093061,85.4921633 47.6714286,85.3628571 50.5,83.1 C52.6,81.6 54.1,78.9 54.1,76.2 C54.1,74.4 53.5,72 50.5,70.2 C48.1,68.7 45.1,67.8 40.3,66.6 L31.9,63.9 C25.9,62.1 19.6,58.8 15.1,54.3 C10.3,49.2 7.6,43.2 7.6,35.4 C7.6,25.2 11.5,16.8 17.8,11.4 C27.1,2.7 39.7,0.9 49.3,0.9 Z" id="path-15"></path>
        <path d="M21.3,0.6 C33.3,0.6 42.6,9.9 42.6,21.9 C42.6,33.9 33.3,43.2 21.3,43.2 C9.3,43.2 0,33.9 0,21.9 C0,9.9 9.3,0.6 21.3,0.6 Z" id="path-17"></path>
        <path d="M0.9,0.8 C0.9,28.1 11.4,55.4 32.1,76.1 L32.1,76.1 L214.5,275 L214.5,365 C214.5,423.8 166.8,471.8 107.7,471.8 C48.9,471.8 0.9,424.1 0.9,365 L0.9,365 L0.9,0.8 Z" id="path-19"></path>
        <path d="M0.6,0 L6.3,6.3 C4.5,4.5 2.4,2.4 0.6,0 L0.6,0 Z" id="path-21"></path>
        <path d="M106.9,0.7 L108.669633,0.7143631 C166.95517,1.66111 213.997,49.291 213.701399,107.8 L213.701399,107.8 L213.701399,471.7 C213.701399,444.4 203.5,417.1 182.5,396.1 L182.5,396.1 L0.1,197.2 L0.1,107.5 C0.1,48.7 47.8,0.7 106.9,0.7 L106.9,0.7 Z" id="path-23"></path>
        <path d="M0.3,0.2 L146.1,159.2 L146.1,433.7 C146.1,460.1 155.7,484.4 171.6,503 L171.6,503 L25.8,344 L25.8,69.5 C25.8,43.1 16.2,18.8 0.3,0.2 L0.3,0.2 Z" id="path-25"></path>
        <path d="M112.1,0.6 C112.7,0.9 113.6,0.9 114.5,0.9 C115.4,1.2 116.3,1.2 117.2,1.2 C118.1,1.2 119.3,1.5 120.2,1.5 C121.1,1.5 121.7,1.8 122.3,1.8 C123.5,2.1 124.4,2.1 125.6,2.4 C126.2,2.4 126.8,2.7 127.4,2.7 C128.3,2.7 129.5,3 130.7,3.3 C131.3,3.3 131.9,3.6 132.5,3.6 C133.7,3.9 134.6,4.2 135.8,4.5 C136.4,4.8 137,4.8 137.6,5.1 C138.5,5.4 139.7,5.7 140.6,6 C141.2,6 142.1,6.3 142.7,6.6 L142.7,6.6 L145.4,7.5 C146.3,7.8 146.9,8.1 147.8,8.4 C148.7,8.7 149.3,9 150.2,9.3 C151.1,9.6 152,10.2 152.9,10.5 L152.9,10.5 L154.7,11.4 C155.6,12 156.5,12.3 157.4,12.9 L157.4,12.9 L159.2,13.8 C160.4,14.4 161.3,15 162.2,15.6 C162.8,15.9 163.1,16.2 163.7,16.5 C164.9,17.1 165.8,17.7 166.7,18.3 C167.3,18.6 167.6,18.9 168.2,19.2 C169.1,20.1 170,20.7 170.9,21.3 C171.2,21.6 171.8,22.2 172.4,22.5 C173.3,23.1 173.9,23.7 174.8,24.3 C175.4,24.9 176.3,25.5 176.9,26.1 C177.5,26.4 178.1,27 178.7,27.6 C180.2,28.8 181.4,30 182.6,31.2 L182.6,31.2 L188.3,37.5 C204.2,56.1 213.8,80.1 213.8,106.8 L213.8,106.8 L213.8,381.6 L31.4,182.7 C10.7,161.7 0.2,134.4 0.2,107.1 L0.2,107.1 L0.2,101.7 C0.5,101.1 0.5,100.2 0.5,99.3 C0.8,98.4 0.8,97.5 0.8,96.6 C0.8,95.7 1.1,94.5 1.1,93.6 C1.1,92.7 1.4,92.1 1.4,91.5 C1.7,90.6 1.7,89.4 2,88.2 C2,87.6 2.3,87 2.3,86.4 C2.3,85.5 2.6,84.3 2.9,83.1 C2.9,82.5 3.2,81.9 3.2,81.3 C3.5,80.1 3.8,79.2 4.1,78 C4.4,77.4 4.4,76.8 4.7,76.2 C5,75.3 5.3,74.1 5.6,73.2 C5.6,72.6 5.9,71.7 6.2,71.1 L6.2,71.1 L7.1,68.4 C7.4,67.5 7.7,66.9 8,66 C8.3,65.1 8.6,64.5 8.9,63.6 C9.2,62.7 9.8,61.8 10.1,60.9 L10.1,60.9 L11,59.1 C11.6,58.2 11.9,57.3 12.5,56.4 L12.5,56.4 L13.4,54.6 C14,53.4 14.6,52.5 15.2,51.6 C15.5,51 15.8,50.7 16.1,50.1 C16.7,48.9 17.3,48 17.9,47.1 C18.2,46.5 18.5,46.2 18.8,45.6 C19.7,44.7 20.3,43.8 20.9,42.9 C21.2,42.6 21.8,42 22.1,41.4 C22.7,40.5 23.3,39.9 23.9,39 C24.5,38.4 25.1,37.5 25.7,36.9 C26,36.3 26.6,35.7 27.2,35.1 C28.4,33.6 29.6,32.4 30.8,31.2 C32,30 33.5,28.8 34.7,27.6 C35.3,27.3 35.9,26.7 36.5,26.1 C37.1,25.5 38,24.9 38.6,24.3 C39.2,23.7 40.1,23.1 41,22.5 C41.3,22.2 41.9,21.6 42.5,21.3 C43.4,20.4 44.3,19.8 45.2,19.2 C45.8,18.9 46.1,18.6 46.7,18.3 C47.6,17.7 48.8,17.1 49.7,16.5 C50.3,16.2 50.6,15.9 51.2,15.6 C52.1,15 53.3,14.4 54.2,13.8 L54.2,13.8 L56,12.9 C56.9,12.3 57.8,12 58.7,11.4 L58.7,11.4 L60.5,10.5 C61.4,10.2 62.3,9.6 63.2,9.3 C64.1,9 64.7,8.7 65.6,8.4 C66.5,8.1 67.1,7.8 68,7.5 L68,7.5 L70.7,6.6 C71.3,6.3 72.2,6.3 72.8,6 C73.7,5.7 74.9,5.4 75.8,5.1 C76.4,4.8 77,4.8 77.6,4.5 C78.8,4.2 79.7,3.9 80.9,3.6 C81.5,3.6 82.1,3.3 82.7,3.3 C83.6,3.3 84.8,3 86,2.7 C86.6,2.7 87.2,2.4 87.8,2.4 C88.7,2.1 89.9,2.1 91.1,1.8 C92,1.8 92.6,1.5 93.2,1.5 C94.1,1.5 95,1.2 96.2,1.2 C97.1,0.9 98,0.9 98.9,0.9 C99.5,0.6 100.4,0.6 101.3,0.6 L101.3,0.6 L112.1,0.6 Z" id="path-27"></path>
        <path d="M0.1,0.2 L181.9,198.8 C202.6,219.8 213.1,247.1 213.1,274.4 L213.1,274.4 L213.1,279.8 C212.8,280.4 212.8,281.3 212.8,282.2 C212.5,283.1 212.5,284 212.5,284.9 C212.5,285.8 212.2,287 212.2,287.9 C212.2,288.8 211.9,289.4 211.9,290 C211.6,291.2 211.6,292.1 211.3,293.3 C211.3,293.9 211,294.5 211,295.1 C211,296 210.7,297.2 210.4,298.4 C210.4,299 210.1,299.6 210.1,300.2 C209.8,301.4 209.5,302.3 209.2,303.5 C208.9,304.1 208.9,304.7 208.6,305.3 C208.3,306.2 208,307.4 207.7,308.3 C207.7,308.9 207.4,309.8 207.1,310.4 L207.1,310.4 L206.2,313.1 C205.9,314 205.6,314.6 205.3,315.5 C205,316.4 204.7,317 204.4,317.9 C204.1,318.8 203.5,319.7 203.2,320.6 L203.2,320.6 L202.3,322.4 C201.7,323.3 201.4,324.2 200.8,325.1 L200.8,325.1 L199.9,326.9 C199.3,328.1 198.7,329 198.1,329.9 C197.8,330.5 197.5,330.8 197.2,331.4 C196.6,332.6 196,333.5 195.4,334.4 C195.1,335 194.8,335.3 194.5,335.9 C193.6,336.8 193,337.7 192.4,338.6 C192.1,338.9 191.5,339.5 191.2,340.1 C190.6,341 190,341.6 189.4,342.5 C188.8,343.1 188.2,344 187.6,344.6 C187.3,345.2 186.7,345.8 186.1,346.4 C184.9,347.9 183.7,349.1 182.5,350.3 C181.3,351.5 179.8,352.7 178.6,353.9 C178,354.2 177.4,354.8 176.8,355.4 C176.2,356 175.3,356.6 174.7,357.2 C174.1,357.8 173.2,358.4 172.3,359 C172,359.3 171.4,359.9 170.8,360.2 C169.9,361.1 169,361.7 168.1,362.3 C167.5,362.6 167.2,362.9 166.6,363.2 C165.7,363.8 164.5,364.4 163.6,365 C163,365.3 162.7,365.6 162.1,365.9 C161.2,366.5 160,367.1 159.1,367.7 C158.8,368 158.2,368.3 157.6,368.6 C156.7,369.2 155.8,369.5 154.9,370.1 L154.9,370.1 L153.1,371 C152.2,371.3 151.3,371.9 150.4,372.2 C149.5,372.5 148.9,372.8 148,373.1 C147.1,373.4 146.5,373.7 145.6,374 L145.6,374 L142.9,374.9 C142.3,374.9 141.4,375.2 140.8,375.5 C139.9,375.8 138.7,376.1 137.8,376.4 C137.2,376.7 136.6,376.7 136,377 C134.8,377.3 133.9,377.6 132.7,377.9 C132.1,377.9 131.5,378.2 130.9,378.2 C130,378.2 128.8,378.5 127.6,378.8 C127,378.8 126.4,379.1 125.8,379.1 C124.6,379.4 123.7,379.4 122.5,379.7 C121.9,379.7 121,380 120.4,380 C119.5,380 118.3,380.3 117.4,380.3 C116.5,380.6 115.6,380.6 114.7,380.6 C113.8,380.9 113.2,380.9 112.3,380.9 L101.5,380.9 C100.6,380.6 100,380.6 99.1,380.6 C98.2,380.3 97.3,380.3 96.4,380.3 C95.5,380.3 94.3,380 93.4,380 C92.8,380 91.9,379.7 91.3,379.7 C90.1,379.4 89.2,379.4 88,379.1 C87.4,379.1 86.8,378.8 86.2,378.8 C85,378.8 84.1,378.5 82.9,378.2 C82.3,378.2 81.7,377.9 81.1,377.9 C79.9,377.6 79,377.3 77.8,377 C77.2,376.7 76.6,376.7 76,376.4 C75.1,376.1 73.9,375.8 73,375.5 C72.4,375.5 71.5,375.2 70.9,374.9 L70.9,374.9 L68.2,374 C67.3,373.7 66.7,373.4 65.8,373.1 C64.9,372.8 64.3,372.5 63.4,372.2 C62.5,371.9 61.6,371.3 60.7,371 L60.7,371 L58.9,370.1 C58,369.5 57.1,369.2 56.2,368.6 C55.9,368.3 55.3,368 54.7,367.7 C53.5,367.1 52.6,366.5 51.7,365.9 C51.1,365.6 50.8,365.3 50.2,365 C49,364.4 48.1,363.8 47.2,363.2 C46.6,362.9 46.3,362.6 45.7,362.3 C44.8,361.4 43.9,360.8 43,360.2 C42.7,359.9 42.1,359.3 41.5,359 C40.6,358.4 40,357.8 39.1,357.2 C38.5,356.6 37.6,356 37,355.4 C36.4,355.1 35.8,354.5 35.2,353.9 C33.7,352.7 32.5,351.5 31.3,350.3 L31.3,350.3 L25.6,344 C9.7,325.4 0.1,301.1 0.1,274.7 L0.1,274.7 L0.1,0.2 Z" id="path-29"></path>
    </defs>
    <g id="Pink_vertical_ninelabs_logo" stroke="none" stroke-width="1" fill="none" fill-rule="evenodd">
        <g id="Group-3" transform="translate(30.000000, 644.000000)">
            <mask id="mask-2" fill="white">
                <use xlink:href="#path-1"></use>
            </mask>
            <g id="Clip-2"></g>
            <polygon id="Fill-1" fill="#EA3987" mask="url(#mask-2)" points="0.24 156.16 152.16 156.16 152.16 0.04 0.24 0.04"></polygon>
        </g>
        <g id="Group-6" transform="translate(212.000000, 631.000000)">
            <mask id="mask-4" fill="white">
                <use xlink:href="#path-3"></use>
            </mask>
            <g id="Clip-5"></g>
            <polygon id="Fill-4" fill="#EA3987" mask="url(#mask-4)" points="0.28 169.16 39.4 169.16 39.4 0.8 0.28 0.8"></polygon>
        </g>
        <g id="Group-9" transform="translate(277.000000, 692.000000)">
            <mask id="mask-6" fill="white">
                <use xlink:href="#path-5"></use>
            </mask>
            <g id="Clip-8"></g>
            <polygon id="Fill-7" fill="#EA3987" mask="url(#mask-6)" points="0.2 107.8 106.76 107.8 106.76 0.64 0.2 0.64"></polygon>
        </g>
        <g id="Group-12" transform="translate(404.000000, 692.000000)">
            <mask id="mask-8" fill="white">
                <use xlink:href="#path-7"></use>
            </mask>
            <g id="Clip-11"></g>
            <polygon id="Fill-10" fill="#EA3987" mask="url(#mask-8)" points="0.28 111.76 112.6 111.76 112.6 0.4 0.28 0.4"></polygon>
        </g>
        <g id="Group-15" transform="translate(30.000000, 855.000000)">
            <mask id="mask-10" fill="white">
                <use xlink:href="#path-9"></use>
            </mask>
            <g id="Clip-14"></g>
            <polygon id="Fill-13" fill="#EA3987" mask="url(#mask-10)" points="0.24 156.36 84.6 156.36 84.6 0.24 0.24 0.24"></polygon>
        </g>
        <g id="Group-18" transform="translate(126.000000, 903.000000)">
            <mask id="mask-12" fill="white">
                <use xlink:href="#path-11"></use>
            </mask>
            <g id="Clip-17"></g>
            <polygon id="Fill-16" fill="#EA3987" mask="url(#mask-12)" points="0 112.2 118.8 112.2 118.8 0.84 0 0.84"></polygon>
        </g>
        <g id="Group-21" transform="translate(272.000000, 841.000000)">
            <mask id="mask-14" fill="white">
                <use xlink:href="#path-13"></use>
            </mask>
            <g id="Clip-20"></g>
            <polygon id="Fill-19" fill="#EA3987" mask="url(#mask-14)" points="0.04 174.2 118.96 174.2 118.96 -0.16 0.04 -0.16"></polygon>
        </g>
        <g id="Group-24" transform="translate(401.000000, 903.000000)">
            <mask id="mask-16" fill="white">
                <use xlink:href="#path-15"></use>
            </mask>
            <g id="Clip-23"></g>
            <polygon id="Fill-22" fill="#EA3987" mask="url(#mask-16)" points="0.04 112.2 87.76 112.2 87.76 0.84 0.04 0.84"></polygon>
        </g>
        <g id="Group-27" transform="translate(507.000000, 972.000000)">
            <mask id="mask-18" fill="white">
                <use xlink:href="#path-17"></use>
            </mask>
            <g id="Clip-26"></g>
            <polygon id="Fill-25" fill="#EA3987" mask="url(#mask-18)" points="0 43.2 42.6 43.2 42.6 0.6 0 0.6"></polygon>
        </g>
        <g id="Group-30" transform="translate(0.000000, 109.000000)">
            <mask id="mask-20" fill="white">
                <use xlink:href="#path-19"></use>
            </mask>
            <g id="Clip-29"></g>
            <polygon id="Fill-28" fill="#F181B1" mask="url(#mask-20)" points="0.84 471.8 214.56 471.8 214.56 0.8 0.84 0.8"></polygon>
        </g>
        <g id="Group-33" transform="translate(360.000000, 543.000000)">
            <mask id="mask-22" fill="white">
                <use xlink:href="#path-21"></use>
            </mask>
            <g id="Clip-32"></g>
            <polygon id="Fill-31" fill="#F181B1" mask="url(#mask-22)" points="0.6 6.36 6.36 6.36 6.36 0 0.6 0"></polygon>
        </g>
        <g id="Group-36" transform="translate(335.000000, 2.000000)">
            <mask id="mask-24" fill="white">
                <use xlink:href="#path-23"></use>
            </mask>
            <g id="Clip-35"></g>
            <polygon id="Fill-34" fill="#F181B1" mask="url(#mask-24)" points="0.04 471.76 213.76 471.76 213.76 0.64 0.04 0.64"></polygon>
        </g>
        <g id="Group-39" transform="translate(189.000000, 40.000000)">
            <mask id="mask-26" fill="white">
                <use xlink:href="#path-25"></use>
            </mask>
            <g id="Clip-38"></g>
            <polygon id="Fill-37" fill="#F181B1" mask="url(#mask-26)" points="0.24 503 171.6 503 171.6 0.2 0.24 0.2"></polygon>
        </g>
        <g id="Group-42" transform="translate(1.000000, 3.000000)">
            <mask id="mask-28" fill="white">
                <use xlink:href="#path-27"></use>
            </mask>
            <g id="Clip-41"></g>
            <polygon id="Fill-40" fill="#EA3987" mask="url(#mask-28)" points="0.2 381.6 213.8 381.6 213.8 0.6 0.2 0.6"></polygon>
        </g>
        <g id="Group-45" transform="translate(335.000000, 199.000000)">
            <mask id="mask-30" fill="white">
                <use xlink:href="#path-29"></use>
            </mask>
            <g id="Clip-44"></g>
            <polygon id="Fill-43" fill="#EA3987" mask="url(#mask-30)" points="0.04 380.96 213.16 380.96 213.16 0.2 0.04 0.2"></polygon>
        </g>
    </g>
</svg>