<?xml version="1.0" encoding="UTF-8"?>
<svg width="800px" height="400px" viewBox="0 0 800 400" version="1.1" xmlns="http://www.w3.org/2000/svg" xmlns:xlink="http://www.w3.org/1999/xlink">
    <!-- Generator: Sketch 52.6 (67491) - http://www.bohemiancoding.com/sketch -->
    <title>Vertical Distortion</title>
    <desc>Created with Sketch.</desc>
    <g id="Vertical-Distortion" stroke="none" stroke-width="1" fill="none" fill-rule="evenodd">
        <g id="Group" transform="translate(64.000000, 104.000000)" fill="#F280B1">
            <g id="Nine-Labs-Logo">
                <rect id="Rectangle" x="180" y="12.9251701" width="93" height="164.795918" rx="46.5"></rect>
                <rect id="Rectangle" x="21" y="12.9251701" width="93" height="164.795918" rx="46.5"></rect>
                <path d="M119.496701,-35.7821832 L128.312241,-33.9244892 C146.394074,-30.1141142 160.503763,-15.9585823 164.255466,2.13551517 L204.448871,195.984409 C207.35023,209.977383 198.3587,223.672945 184.365726,226.574304 C181.100172,227.251398 177.734517,227.290828 174.453996,226.690425 L167.331602,225.386881 C148.775672,221.990766 134.110203,207.720564 130.208495,189.264324 L89.0695036,-5.3353541 C86.1353751,-19.2146554 95.0081907,-32.8446333 108.887492,-35.7787618 C112.385125,-36.5181725 115.998592,-36.5193378 119.496701,-35.7821832 Z" id="Rectangle" style="mix-blend-mode: multiply;" transform="translate(146.750892, 95.389508) rotate(-45.000000) translate(-146.750892, -95.389508) "></path>
            </g>
        </g>
        <path d="M411.346,219.582483 L382.276,189.022121 L381.97,189.022121 L382.378,219.582483 L365.446,219.582483 L365.446,172.850871 L385.336,172.850871 L414.304,203.345228 L414.61,203.345228 L414.202,172.850871 L431.134,172.850871 L431.134,219.582483 L411.346,219.582483 Z M463.264,176.217131 C463.264,177.0532 463.009003,177.834252 462.499,178.560312 C461.988997,179.286372 461.309004,179.913414 460.459,180.441457 C459.608996,180.969501 458.589006,181.387529 457.399,181.695554 C456.208994,182.00358 454.968006,182.15759 453.676,182.15759 C450.955986,182.15759 448.678009,181.574551 446.842,180.408455 C445.005991,179.242359 444.088,177.845265 444.088,176.217131 C444.088,175.425066 444.325998,174.666015 444.802,173.939955 C445.278002,173.213895 445.957996,172.586853 446.842,172.05881 C447.726004,171.530766 448.745994,171.101737 449.902,170.77171 C451.058006,170.441683 452.315993,170.276672 453.676,170.276672 C454.968006,170.276672 456.208994,170.430682 457.399,170.738707 C458.589006,171.046733 459.608996,171.464761 460.459,171.992804 C461.309004,172.520848 461.988997,173.14789 462.499,173.87395 C463.009003,174.60001 463.264,175.381062 463.264,176.217131 Z M445.312,219.582483 L445.312,186.711942 L462.04,186.711942 L462.04,219.582483 L445.312,219.582483 Z M508.654,219.582483 L508.654,201.629095 C508.654,200.705019 508.535001,199.82496 508.297,198.988891 C508.058999,198.152822 507.668003,197.415773 507.124,196.77772 C506.579997,196.139668 505.815005,195.633634 504.829,195.259603 C503.842995,194.885572 502.602007,194.69856 501.106,194.69856 C499.609993,194.69856 498.301006,194.885572 497.179,195.259603 C496.056994,195.633634 495.122004,196.150668 494.374,196.810723 C493.625996,197.470777 493.065002,198.229828 492.691,199.087899 C492.316998,199.945969 492.13,200.837029 492.13,201.761105 L492.13,219.582483 L475.3,219.582483 L475.3,186.711942 L491.518,186.711942 L491.518,191.266294 L491.722,191.266294 C492.334003,190.562236 493.132995,189.86919 494.119,189.187134 C495.105005,188.505077 496.260993,187.922038 497.587,187.437998 C498.913007,186.953958 500.357992,186.557932 501.922,186.249906 C503.486008,185.941881 505.151991,185.787871 506.92,185.787871 C510.320017,185.787871 513.209988,186.183897 515.59,186.975963 C517.970012,187.768028 519.890993,188.791097 521.353,190.0452 C522.815007,191.299303 523.868997,192.7404 524.515,194.368534 C525.161003,195.996668 525.484,197.624778 525.484,199.252912 L525.484,219.582483 L508.654,219.582483 Z M573.118,199.384922 C573.118,197.668781 572.285008,196.194681 570.619,194.96258 C568.952992,193.730479 566.454017,193.114437 563.122,193.114437 C561.489992,193.114437 559.994007,193.279448 558.634,193.609475 C557.273993,193.939503 556.084005,194.390533 555.064,194.96258 C554.043995,195.534627 553.228003,196.205672 552.616,196.975736 C552.003997,197.745799 551.664,198.548853 551.596,199.384922 L573.118,199.384922 Z M588.52,203.543243 L588.52,204.863345 C588.52,205.303381 588.486,205.72141 588.418,206.117442 L551.596,206.117442 C551.732001,207.041518 552.156996,207.877574 552.871,208.625636 C553.585004,209.373698 554.502994,210.022741 555.625,210.572787 C556.747006,211.122832 558.004993,211.551861 559.399,211.859886 C560.793007,212.167911 562.237993,212.321922 563.734,212.321922 C566.386013,212.321922 568.629991,212.0029 570.466,211.364848 C572.302009,210.726795 573.797994,209.90174 574.954,208.889656 L586.582,213.642024 C584.201988,215.886208 581.05702,217.613325 577.147,218.823424 C573.23698,220.033524 568.698026,220.638565 563.53,220.638565 C559.721981,220.638565 556.118017,220.253539 552.718,219.483475 C549.317983,218.713412 546.343013,217.591336 543.793,216.117215 C541.242987,214.643094 539.237007,212.827972 537.775,210.671794 C536.312993,208.515617 535.582,206.051451 535.582,203.279223 C535.582,200.595002 536.295993,198.163838 537.724,195.985659 C539.152007,193.80748 541.089988,191.959355 543.538,190.44123 C545.986012,188.923106 548.875983,187.746026 552.208,186.909957 C555.540017,186.073889 559.143981,185.655861 563.02,185.655861 C566.760019,185.655861 570.193984,186.062888 573.322,186.876955 C576.450016,187.691022 579.135989,188.868101 581.38,190.408228 C583.624011,191.948355 585.374994,193.81848 586.633,196.018662 C587.891006,198.218843 588.52,200.727011 588.52,203.543243 Z M365.446,281.704932 L365.446,234.97332 L382.99,234.97332 L382.99,271.870172 L410.938,271.870172 L410.938,281.704932 L365.446,281.704932 Z M448.168,267.381825 L446.026,267.381825 C444.189991,267.381825 442.337009,267.436829 440.467,267.546838 C438.596991,267.656847 436.931007,267.865861 435.469,268.173886 C434.006993,268.481911 432.800005,268.932942 431.848,269.526991 C430.895995,270.12104 430.42,270.902092 430.42,271.870172 C430.42,272.486222 430.640998,273.014258 431.083,273.454294 C431.525002,273.89433 432.085997,274.246354 432.766,274.510376 C433.446003,274.774398 434.227996,274.96141 435.112,275.071419 C435.996004,275.181428 436.845996,275.236432 437.662,275.236432 C441.062017,275.236432 443.662991,274.631391 445.465,273.421292 C447.267009,272.211192 448.168,270.572082 448.168,268.503912 L448.168,267.381825 Z M417.466,253.322738 C420.458015,251.474586 423.94298,250.088493 427.921,249.164417 C431.89902,248.240341 435.961979,247.77831 440.11,247.77831 C444.394021,247.77831 448.014985,248.119332 450.973,248.801389 C453.931015,249.483445 456.327991,250.539516 458.164,251.969634 C460.000009,253.399751 461.342996,255.203873 462.193,257.382052 C463.043004,259.560231 463.468,262.145405 463.468,265.137651 L463.468,281.704932 L448.168,281.704932 L448.168,278.206662 L447.862,278.206662 C446.569994,279.570774 444.615013,280.626845 441.997,281.374906 C439.378987,282.122968 436.540015,282.496993 433.48,282.496993 C431.43999,282.496993 429.332011,282.320981 427.156,281.968952 C424.979989,281.616923 422.991009,281.044885 421.189,280.25282 C419.386991,279.460755 417.908006,278.404683 416.752,277.084575 C415.595994,275.764466 415.018,274.136357 415.018,272.200197 C415.018,269.824002 416.02099,267.909873 418.027,266.457753 C420.03301,265.005634 422.616984,263.883558 425.779,263.091493 C428.941016,262.299428 432.459981,261.771392 436.336,261.507371 C440.212019,261.243349 443.985982,261.11134 447.658,261.11134 L447.658,260.583299 C447.658,258.955165 446.774009,257.756085 445.006,256.986021 C443.237991,256.215958 441.062013,255.830932 438.478,255.830932 C436.097988,255.830932 433.803011,256.160954 431.593,256.821009 C429.382989,257.481063 427.496008,258.273116 425.932,259.197192 L417.466,253.322738 Z M532.522,265.137651 C532.522,267.42584 531.978005,269.625988 530.89,271.738162 C529.801995,273.850335 528.22101,275.709461 526.147,277.315593 C524.07299,278.921725 521.540015,280.208811 518.548,281.176891 C515.555985,282.144971 512.156019,282.629003 508.348,282.629003 C504.947983,282.629003 501.735015,282.177973 498.709,281.275899 C495.682985,280.373825 493.354008,279.086738 491.722,277.4146 L491.518,277.4146 L491.518,281.704932 L476.116,281.704932 L476.116,231.805075 L492.844,231.805075 L492.844,252.332662 L493.048,252.332662 C494.476007,251.232571 496.481987,250.220503 499.066,249.296427 C501.650013,248.372351 504.811981,247.91032 508.552,247.91032 C512.224018,247.91032 515.538985,248.372351 518.497,249.296427 C521.455015,250.220503 523.97099,251.474587 526.045,253.058718 C528.11901,254.642848 529.716994,256.479972 530.839,258.570144 C531.961006,260.660316 532.522,262.849463 532.522,265.137651 Z M516.406,265.137651 C516.406,264.081564 516.151003,263.047495 515.641,262.035412 C515.130997,261.023328 514.366005,260.132268 513.346,259.362205 C512.325995,258.592142 511.068007,257.965099 509.572,257.48106 C508.075993,256.99702 506.34201,256.755003 504.37,256.755003 C502.46599,256.755003 500.766007,256.99702 499.27,257.48106 C497.773993,257.965099 496.499005,258.603142 495.445,259.395207 C494.390995,260.187273 493.575003,261.089333 492.997,262.101417 C492.418997,263.1135 492.13,264.14757 492.13,265.203656 C492.13,266.259743 492.418997,267.293813 492.997,268.305896 C493.575003,269.31798 494.390995,270.22004 495.445,271.012105 C496.499005,271.804171 497.773993,272.442214 499.27,272.926253 C500.766007,273.410293 502.46599,273.65231 504.37,273.65231 C506.34201,273.65231 508.075993,273.410293 509.572,272.926253 C511.068007,272.442214 512.325995,271.804171 513.346,271.012105 C514.366005,270.22004 515.130997,269.306979 515.641,268.272894 C516.151003,267.238809 516.406,266.193738 516.406,265.137651 Z M573.016,258.537141 C571.655993,257.701072 570.058009,256.997025 568.222,256.424978 C566.385991,255.852931 564.44801,255.566912 562.408,255.566912 C560.843992,255.566912 559.399007,255.764925 558.073,256.160957 C556.746993,256.55699 556.084,257.239036 556.084,258.207116 C556.084,259.131192 556.814993,259.791236 558.277,260.187269 C559.739007,260.583301 562.101984,261.023331 565.366,261.507371 C567.27001,261.771392 569.19099,262.145418 571.129,262.629457 C573.06701,263.113497 574.817992,263.75154 576.382,264.543605 C577.946008,265.335671 579.203995,266.303736 580.156,267.44783 C581.108005,268.591924 581.584,269.956016 581.584,271.540146 C581.584,273.608316 580.938006,275.357434 579.646,276.787552 C578.353994,278.21767 576.67101,279.372747 574.597,280.25282 C572.52299,281.132892 570.194013,281.770935 567.61,282.166968 C565.025987,282.563 562.442013,282.761014 559.858,282.761014 C555.709979,282.761014 551.64702,282.331985 547.669,281.473914 C543.69098,280.615843 540.376013,279.350758 537.724,277.678621 L547.108,271.276126 C548.604007,272.332213 550.439989,273.212272 552.616,273.91633 C554.792011,274.620388 557.103988,274.972412 559.552,274.972412 C560.912007,274.972412 562.254993,274.763397 563.581,274.345363 C564.907007,273.927329 565.57,273.190279 565.57,272.134192 C565.57,271.122109 564.754008,270.374059 563.122,269.890019 C561.489992,269.405979 558.940017,268.899945 555.472,268.371901 C553.703991,268.10788 551.936009,267.755856 550.168,267.31582 C548.399991,266.875784 546.819007,266.281744 545.425,265.533682 C544.030993,264.78562 542.892004,263.861558 542.008,262.761468 C541.123996,261.661377 540.682,260.341288 540.682,258.801162 C540.682,256.820999 541.327994,255.137885 542.62,253.751771 C543.912006,252.365657 545.57799,251.232581 547.618,250.352509 C549.65801,249.472436 551.918988,248.823392 554.401,248.405358 C556.883012,247.987324 559.347988,247.77831 561.796,247.77831 C565.604019,247.77831 569.326982,248.163335 572.965,248.933399 C576.603018,249.703462 579.679987,250.85854 582.196,252.398667 L573.016,258.537141 Z M610.348,275.896483 C610.348,277.744635 609.34501,279.284739 607.339,280.51684 C605.33299,281.748942 602.936014,282.364983 600.148,282.364983 C598.719993,282.364983 597.377006,282.199972 596.119,281.869945 C594.860994,281.539918 593.756005,281.088887 592.804,280.51684 C591.851995,279.944793 591.104003,279.273748 590.56,278.503685 C590.015997,277.733621 589.744,276.886564 589.744,275.962488 C589.744,275.082416 590.015997,274.246359 590.56,273.454294 C591.104003,272.662229 591.851995,271.969182 592.804,271.375134 C593.756005,270.781085 594.860994,270.308053 596.119,269.956024 C597.377006,269.603995 598.719993,269.427983 600.148,269.427983 C602.936014,269.427983 605.33299,270.044024 607.339,271.276126 C609.34501,272.508227 610.348,274.048331 610.348,275.896483 Z" id="Nine-Labs." fill="#EB3B86"></path>
        <g id="X" transform="translate(86.000000, 70.000000)" stroke="#CC0000" stroke-linecap="round" stroke-width="18">
            <path d="M1,0 L633.702251,264" id="Line"></path>
            <path d="M185,-184 L450,451" id="Line" transform="translate(317.500000, 133.500000) rotate(-90.000000) translate(-317.500000, -133.500000) "></path>
        </g>
    </g>
</svg>