<?xml version="1.0" encoding="UTF-8"?>
<svg width="800px" height="400px" viewBox="0 0 800 400" version="1.1" xmlns="http://www.w3.org/2000/svg" xmlns:xlink="http://www.w3.org/1999/xlink">
    <!-- Generator: Sketch 52.6 (67491) - http://www.bohemiancoding.com/sketch -->
    <title>Text Mark</title>
    <desc>Created with Sketch.</desc>
    <g id="Text-Mark" stroke="none" stroke-width="1" fill="none" fill-rule="evenodd">
        <g id="Group" transform="translate(64.000000, 52.000000)" fill="#F280B1">
            <rect id="Rectangle" x="180" y="20" width="93" height="255" rx="46.5"></rect>
            <rect id="Rectangle" x="21" y="20" width="93" height="255" rx="46.5"></rect>
            <path d="M147.026465,-12.3715371 L147.813375,-12.3749548 C173.409938,-12.4861266 194.250175,8.1738651 194.361347,33.7704282 C194.362167,33.9593115 194.361833,34.1481982 194.360344,34.3370775 L192.575638,260.729002 C192.379041,285.667505 172.543735,306.010376 147.618158,306.836899 L145.977005,306.891319 C121.358285,307.707666 100.739088,288.41203 99.9227409,263.793309 C99.9046158,263.246708 99.896546,262.699819 99.8985357,262.152921 L100.728731,33.9588533 C100.821635,8.4225974 121.490281,-12.2606275 147.026465,-12.3715371 Z" id="Rectangle" style="mix-blend-mode: multiply;" transform="translate(147.130012, 147.270447) rotate(-45.000000) translate(-147.130012, -147.270447) "></path>
        </g>
        <path d="M411.346,231 L382.276,183.774 L381.97,183.774 L382.378,231 L365.446,231 L365.446,158.784 L385.336,158.784 L414.304,205.908 L414.61,205.908 L414.202,158.784 L431.134,158.784 L431.134,231 L411.346,231 Z M463.264,163.986 C463.264,165.278006 463.009003,166.484994 462.499,167.607 C461.988997,168.729006 461.309004,169.697996 460.459,170.514 C459.608996,171.330004 458.589006,171.975998 457.399,172.452 C456.208994,172.928002 454.968006,173.166 453.676,173.166 C450.955986,173.166 448.678009,172.265009 446.842,170.463 C445.005991,168.660991 444.088,166.502013 444.088,163.986 C444.088,162.761994 444.325998,161.589006 444.802,160.467 C445.278002,159.344994 445.957996,158.376004 446.842,157.56 C447.726004,156.743996 448.745994,156.081003 449.902,155.571 C451.058006,155.060997 452.315993,154.806 453.676,154.806 C454.968006,154.806 456.208994,155.043998 457.399,155.52 C458.589006,155.996002 459.608996,156.641996 460.459,157.458 C461.309004,158.274004 461.988997,159.242994 462.499,160.365 C463.009003,161.487006 463.264,162.693994 463.264,163.986 Z M445.312,231 L445.312,180.204 L462.04,180.204 L462.04,231 L445.312,231 Z M508.654,231 L508.654,203.256 C508.654,201.827993 508.535001,200.468006 508.297,199.176 C508.058999,197.883994 507.668003,196.745005 507.124,195.759 C506.579997,194.772995 505.815005,193.991003 504.829,193.413 C503.842995,192.834997 502.602007,192.546 501.106,192.546 C499.609993,192.546 498.301006,192.834997 497.179,193.413 C496.056994,193.991003 495.122004,194.789995 494.374,195.81 C493.625996,196.830005 493.065002,198.002993 492.691,199.329 C492.316998,200.655007 492.13,202.031993 492.13,203.46 L492.13,231 L475.3,231 L475.3,180.204 L491.518,180.204 L491.518,187.242 L491.722,187.242 C492.334003,186.153995 493.132995,185.083005 494.119,184.029 C495.105005,182.974995 496.260993,182.074004 497.587,181.326 C498.913007,180.577996 500.357992,179.966002 501.922,179.49 C503.486008,179.013998 505.151991,178.776 506.92,178.776 C510.320017,178.776 513.209988,179.387994 515.59,180.612 C517.970012,181.836006 519.890993,183.41699 521.353,185.355 C522.815007,187.29301 523.868997,189.519987 524.515,192.036 C525.161003,194.552013 525.484,197.067987 525.484,199.584 L525.484,231 L508.654,231 Z M573.118,199.788 C573.118,197.135987 572.285008,194.85801 570.619,192.954 C568.952992,191.04999 566.454017,190.098 563.122,190.098 C561.489992,190.098 559.994007,190.352997 558.634,190.863 C557.273993,191.373003 556.084005,192.069996 555.064,192.954 C554.043995,193.838004 553.228003,194.874994 552.616,196.065 C552.003997,197.255006 551.664,198.495994 551.596,199.788 L573.118,199.788 Z M588.52,206.214 L588.52,208.254 C588.52,208.934003 588.486,209.579997 588.418,210.192 L551.596,210.192 C551.732001,211.620007 552.156996,212.911994 552.871,214.068 C553.585004,215.224006 554.502994,216.226996 555.625,217.077 C556.747006,217.927004 558.004993,218.589998 559.399,219.066 C560.793007,219.542002 562.237993,219.78 563.734,219.78 C566.386013,219.78 568.629991,219.287005 570.466,218.301 C572.302009,217.314995 573.797994,216.040008 574.954,214.476 L586.582,221.82 C584.201988,225.288017 581.05702,227.956991 577.147,229.827 C573.23698,231.697009 568.698026,232.632 563.53,232.632 C559.721981,232.632 556.118017,232.037006 552.718,230.847 C549.317983,229.656994 546.343013,227.923011 543.793,225.645 C541.242987,223.366989 539.237007,220.562017 537.775,217.23 C536.312993,213.897983 535.582,210.090021 535.582,205.806 C535.582,201.657979 536.295993,197.901017 537.724,194.535 C539.152007,191.168983 541.089988,188.313012 543.538,185.967 C545.986012,183.620988 548.875983,181.802006 552.208,180.51 C555.540017,179.217994 559.143981,178.572 563.02,178.572 C566.760019,178.572 570.193984,179.200994 573.322,180.459 C576.450016,181.717006 579.135989,183.535988 581.38,185.916 C583.624011,188.296012 585.374994,191.185983 586.633,194.586 C587.891006,197.986017 588.52,201.861978 588.52,206.214 Z M365.446,327 L365.446,254.784 L382.99,254.784 L382.99,311.802 L410.938,311.802 L410.938,327 L365.446,327 Z M448.168,304.866 L446.026,304.866 C444.189991,304.866 442.337009,304.950999 440.467,305.121 C438.596991,305.291001 436.931007,305.613998 435.469,306.09 C434.006993,306.566002 432.800005,307.262995 431.848,308.181 C430.895995,309.099005 430.42,310.305993 430.42,311.802 C430.42,312.754005 430.640998,313.569997 431.083,314.25 C431.525002,314.930003 432.085997,315.473998 432.766,315.882 C433.446003,316.290002 434.227996,316.578999 435.112,316.749 C435.996004,316.919001 436.845996,317.004 437.662,317.004 C441.062017,317.004 443.662991,316.069009 445.465,314.199 C447.267009,312.328991 448.168,309.796016 448.168,306.6 L448.168,304.866 Z M417.466,283.14 C420.458015,280.283986 423.94298,278.142007 427.921,276.714 C431.89902,275.285993 435.961979,274.572 440.11,274.572 C444.394021,274.572 448.014985,275.098995 450.973,276.153 C453.931015,277.207005 456.327991,278.838989 458.164,281.049 C460.000009,283.259011 461.342996,286.046983 462.193,289.413 C463.043004,292.779017 463.468,296.773977 463.468,301.398 L463.468,327 L448.168,327 L448.168,321.594 L447.862,321.594 C446.569994,323.702011 444.615013,325.333994 441.997,326.49 C439.378987,327.646006 436.540015,328.224 433.48,328.224 C431.43999,328.224 429.332011,327.952003 427.156,327.408 C424.979989,326.863997 422.991009,325.980006 421.189,324.756 C419.386991,323.531994 417.908006,321.90001 416.752,319.86 C415.595994,317.81999 415.018,315.304015 415.018,312.312 C415.018,308.639982 416.02099,305.682011 418.027,303.438 C420.03301,301.193989 422.616984,299.460006 425.779,298.236 C428.941016,297.011994 432.459981,296.196002 436.336,295.788 C440.212019,295.379998 443.985982,295.176 447.658,295.176 L447.658,294.36 C447.658,291.843987 446.774009,289.991006 445.006,288.801 C443.237991,287.610994 441.062013,287.016 438.478,287.016 C436.097988,287.016 433.803011,287.525995 431.593,288.546 C429.382989,289.566005 427.496008,290.789993 425.932,292.218 L417.466,283.14 Z M532.522,301.398 C532.522,304.934018 531.978005,308.333984 530.89,311.598 C529.801995,314.862016 528.22101,317.734988 526.147,320.217 C524.07299,322.699012 521.540015,324.687993 518.548,326.184 C515.555985,327.680007 512.156019,328.428 508.348,328.428 C504.947983,328.428 501.735015,327.731007 498.709,326.337 C495.682985,324.942993 493.354008,322.954013 491.722,320.37 L491.518,320.37 L491.518,327 L476.116,327 L476.116,249.888 L492.844,249.888 L492.844,281.61 L493.048,281.61 C494.476007,279.909991 496.481987,278.346007 499.066,276.918 C501.650013,275.489993 504.811981,274.776 508.552,274.776 C512.224018,274.776 515.538985,275.489993 518.497,276.918 C521.455015,278.346007 523.97099,280.283988 526.045,282.732 C528.11901,285.180012 529.716994,288.018984 530.839,291.249 C531.961006,294.479016 532.522,297.861982 532.522,301.398 Z M516.406,301.398 C516.406,299.765992 516.151003,298.168008 515.641,296.604 C515.130997,295.039992 514.366005,293.663006 513.346,292.473 C512.325995,291.282994 511.068007,290.314004 509.572,289.566 C508.075993,288.817996 506.34201,288.444 504.37,288.444 C502.46599,288.444 500.766007,288.817996 499.27,289.566 C497.773993,290.314004 496.499005,291.299994 495.445,292.524 C494.390995,293.748006 493.575003,295.141992 492.997,296.706 C492.418997,298.270008 492.13,299.867992 492.13,301.5 C492.13,303.132008 492.418997,304.729992 492.997,306.294 C493.575003,307.858008 494.390995,309.251994 495.445,310.476 C496.499005,311.700006 497.773993,312.685996 499.27,313.434 C500.766007,314.182004 502.46599,314.556 504.37,314.556 C506.34201,314.556 508.075993,314.182004 509.572,313.434 C511.068007,312.685996 512.325995,311.700006 513.346,310.476 C514.366005,309.251994 515.130997,307.841008 515.641,306.243 C516.151003,304.644992 516.406,303.030008 516.406,301.398 Z M573.016,291.198 C571.655993,289.905994 570.058009,288.818004 568.222,287.934 C566.385991,287.049996 564.44801,286.608 562.408,286.608 C560.843992,286.608 559.399007,286.913997 558.073,287.526 C556.746993,288.138003 556.084,289.191993 556.084,290.688 C556.084,292.116007 556.814993,293.135997 558.277,293.748 C559.739007,294.360003 562.101984,295.039996 565.366,295.788 C567.27001,296.196002 569.19099,296.773996 571.129,297.522 C573.06701,298.270004 574.817992,299.255994 576.382,300.48 C577.946008,301.704006 579.203995,303.199991 580.156,304.968 C581.108005,306.736009 581.584,308.843988 581.584,311.292 C581.584,314.488016 580.938006,317.190989 579.646,319.401 C578.353994,321.611011 576.67101,323.395993 574.597,324.756 C572.52299,326.116007 570.194013,327.101997 567.61,327.714 C565.025987,328.326003 562.442013,328.632 559.858,328.632 C555.709979,328.632 551.64702,327.969007 547.669,326.643 C543.69098,325.316993 540.376013,323.362013 537.724,320.778 L547.108,310.884 C548.604007,312.516008 550.439989,313.875995 552.616,314.964 C554.792011,316.052005 557.103988,316.596 559.552,316.596 C560.912007,316.596 562.254993,316.273003 563.581,315.627 C564.907007,314.980997 565.57,313.842008 565.57,312.21 C565.57,310.645992 564.754008,309.490004 563.122,308.742 C561.489992,307.993996 558.940017,307.212004 555.472,306.396 C553.703991,305.987998 551.936009,305.444003 550.168,304.764 C548.399991,304.083997 546.819007,303.166006 545.425,302.01 C544.030993,300.853994 542.892004,299.426008 542.008,297.726 C541.123996,296.025992 540.682,293.986012 540.682,291.606 C540.682,288.545985 541.327994,285.945011 542.62,283.803 C543.912006,281.660989 545.57799,279.910007 547.618,278.55 C549.65801,277.189993 551.918988,276.187003 554.401,275.541 C556.883012,274.894997 559.347988,274.572 561.796,274.572 C565.604019,274.572 569.326982,275.166994 572.965,276.357 C576.603018,277.547006 579.679987,279.331988 582.196,281.712 L573.016,291.198 Z M610.348,318.024 C610.348,320.880014 609.34501,323.25999 607.339,325.164 C605.33299,327.06801 602.936014,328.02 600.148,328.02 C598.719993,328.02 597.377006,327.765003 596.119,327.255 C594.860994,326.744997 593.756005,326.048004 592.804,325.164 C591.851995,324.279996 591.104003,323.243006 590.56,322.053 C590.015997,320.862994 589.744,319.554007 589.744,318.126 C589.744,316.765993 590.015997,315.474006 590.56,314.25 C591.104003,313.025994 591.851995,311.955005 592.804,311.037 C593.756005,310.118995 594.860994,309.388003 596.119,308.844 C597.377006,308.299997 598.719993,308.028 600.148,308.028 C602.936014,308.028 605.33299,308.97999 607.339,310.884 C609.34501,312.78801 610.348,315.167986 610.348,318.024 Z" id="Nine-Labs." fill="#EB3B86"></path>
    </g>
</svg>