<?xml version="1.0" encoding="UTF-8"?>
<svg width="1000px" height="1000px" viewBox="0 0 1000 1000" version="1.1" xmlns="http://www.w3.org/2000/svg" xmlns:xlink="http://www.w3.org/1999/xlink">
    <title>Wordmark - One Color</title>
    <g id="Wordmark---One-Color" stroke="none" stroke-width="1" fill="none" fill-rule="evenodd">
        <g id="Group" transform="translate(131.000000, 208.000000)" fill="#000000">
            <path d="M75.1819389,209 L75.1819389,85.2716094 C75.1819389,84.7193246 75.6296542,84.2716094 76.1819389,84.2716094 C76.4886745,84.2716094 76.7784425,84.4123828 76.9680365,84.6535069 L176.198752,210.854307 C176.767534,211.57768 177.636838,212 178.557045,212 L229,212 C230.656854,212 232,210.656854 232,209 L232,3 C232,1.34314575 230.656854,1.54389557e-14 229,0 L180.099602,0 C178.442747,3.04359188e-16 177.099602,1.34314575 177.099602,3 L177.099602,126.728391 C177.099602,127.280675 176.651886,127.728391 176.099602,127.728391 C175.792866,127.728391 175.503098,127.587617 175.313504,127.346493 L76.0827882,1.14569267 C75.5140062,0.42232047 74.6447022,6.24377887e-17 73.7244955,0 L23,0 C21.3431458,7.48448398e-16 20,1.34314575 20,3 L20,209 C20,210.656854 21.3431458,212 23,212 L72.1819389,212 C73.8387932,212 75.1819389,210.656854 75.1819389,209 Z" id="Path" fill-rule="nonzero"></path>
            <path d="M317,209 L317,3 C317,1.34314575 315.656854,3.66629817e-15 314,0 L265,0 C263.343146,-1.39730022e-16 262,1.34314575 262,3 L262,209 C262,210.656854 263.343146,212 265,212 L314,212 C315.656854,212 317,210.656854 317,209 Z" id="Path" fill-rule="nonzero"></path>
            <path d="M401.921647,209 L401.921647,85.2823792 C401.921647,84.7300945 402.369362,84.2823792 402.921647,84.2823792 C403.229188,84.2823792 403.519625,84.4238899 403.709161,84.6660834 L502.457724,210.848888 C503.026334,211.575468 503.897644,212 504.820268,212 L555,212 C556.656854,212 558,210.656854 558,209 L558,3 C558,1.34314575 556.656854,1.54389557e-14 555,0 L506.358566,0 C504.701711,3.04359188e-16 503.358566,1.34314575 503.358566,3 L503.358566,126.717621 C503.358566,127.269906 502.91085,127.717621 502.358566,127.717621 C502.051024,127.717621 501.760588,127.57611 501.571051,127.333917 L402.822488,1.15111234 C402.253878,0.424531959 401.382569,2.93914109e-15 400.459944,0 L350,0 C348.343146,-1.39730022e-16 347,1.34314575 347,3 L347,209 C347,210.656854 348.343146,212 350,212 L398.921647,212 C400.578501,212 401.921647,210.656854 401.921647,209 Z" id="Path" fill-rule="nonzero"></path>
            <path d="M720.460609,207.937075 L705.077629,167.336679 C704.635877,166.170762 703.519041,165.399604 702.272243,165.399604 L644.310509,165.399604 C643.758224,165.399604 643.310509,164.951889 643.310509,164.399604 L643.310509,129.905319 C643.310509,129.353034 643.758224,128.905319 644.310509,128.905319 L700,128.905319 C701.656854,128.905319 703,127.562173 703,125.905319 L703,85.3049231 C703,83.6480688 701.656854,82.3049231 700,82.3049231 L644.310509,82.3049231 C643.758224,82.3049231 643.310509,81.8572078 643.310509,81.3049231 L643.310509,47.9335385 C643.310509,47.3812537 643.758224,46.9335385 644.310509,46.9335385 L700.977978,46.9335385 C702.200147,46.9335385 703.300141,46.1921343 703.758754,45.0592741 L720.3253,4.13682187 C720.947026,2.60104129 720.206039,0.852036121 718.670259,0.230309484 C718.310277,0.0845789172 717.925424,0.0101299689 717.537064,0.0110954858 L590.992542,0.325702978 C589.338604,0.329814898 588,1.6717514 588,3.32569371 L588,209 C588,210.656854 589.343146,212 591,212 L717.655223,212 C719.312077,212 720.655223,210.656854 720.655223,209 C720.655223,208.636833 720.589282,208.276683 720.460609,207.937075 Z" id="Path" fill-rule="nonzero"></path>
            <path d="M171.573118,575.048265 L186.490284,535.048265 C187.069225,533.49585 186.280068,531.768044 184.727653,531.189103 C184.392308,531.064044 184.037292,531 183.679387,531 L76,531 C75.4477153,531.000154 75,530.552438 75,530.000154 C75,530.000102 75,530.000051 75.0001537,530 L75.0250608,368 C75.0257767,366.343146 73.6828375,364.999794 72.0259833,364.999539 C72.0258295,364.999539 72.0256758,364.999539 72.025522,365 L23,365 C21.3431458,365 20,366.343146 20,368 L20,574 C20,575.656854 21.3431458,577 23,577 L168.762221,577 C170.014749,577 171.135457,576.221841 171.573118,575.048265 Z" id="Path" fill-rule="nonzero"></path>
            <path d="M319.438956,365 C320.684998,365 321.801323,365.770237 322.243609,366.935143 L322.243609,366.935143 L400.456675,572.935143 C400.585829,573.275312 400.652022,573.636138 400.652022,574 C400.652022,575.656854 399.308876,577 397.652022,577 L397.652022,577 L345.527808,577 C344.245737,577 343.105359,576.18528 342.689784,574.972431 L342.689784,574.972431 L330.995537,540.842965 C330.857012,540.438682 330.476886,540.167109 330.049529,540.167109 L330.049529,540.167109 L252.950471,540.167109 C252.523114,540.167109 252.142988,540.438682 252.004463,540.842965 L252.004463,540.842965 L240.310216,574.972431 C239.894641,576.18528 238.754263,577 237.472192,577 L237.472192,577 L185.347978,577 C184.984116,577 184.62329,576.933807 184.283121,576.804653 C182.734154,576.216549 181.955221,574.48411 182.543325,572.935143 L182.543325,572.935143 L260.756391,366.935143 C261.198677,365.770237 262.315002,365 263.561044,365 L263.561044,365 Z M291.83035,430.08323 C291.309072,429.900783 290.738589,430.17546 290.556142,430.696738 L290.556142,430.696738 L267.465623,496.66965 C267.428461,496.775825 267.409481,496.887509 267.409481,497 C267.409481,497.552285 267.857196,498 268.409481,498 L268.409481,498 L314.590519,498 C314.70301,498 314.814694,497.98102 314.920869,497.943858 C315.442148,497.761411 315.716825,497.190928 315.534377,496.66965 L315.534377,496.66965 L292.443858,430.696738 C292.343342,430.409549 292.11754,430.183746 291.83035,430.08323 Z" id="Combined-Shape" fill-rule="nonzero"></path>
            <path d="M493.267826,365 C512.801739,365 527.64,369.686118 537.782609,379.058355 C547.925217,388.430592 552.996522,401.926614 552.996522,419.546419 C552.996522,430.230769 551.071304,439.087533 547.22087,446.116711 C543.370435,453.145889 537.50087,459.097259 529.612174,463.970822 C535.214318,467.766578 538.37765,469.910065 539.756522,470.859416 C541.135394,471.808768 549.805217,477.748011 553.28,482.246684 C556.754783,486.745358 559.243478,491.806366 560.746087,497.429708 C562.248696,503.05305 563,509.051282 563,515.424403 C563,525.358974 561.262609,534.168877 557.787826,541.854111 C554.313043,549.539346 549.429565,556.006189 543.137391,561.254642 C536.845217,566.503095 529.191304,570.439434 520.175652,573.06366 C511.16,575.687887 510.040466,576.628898 499.747826,577 C496.450088,577.1189 487.904447,577.180658 474.110902,577.185272 L470.627977,577.185259 C456.575605,577.180736 437.694987,577.12364 413.986123,577.01397 C412.334712,577.006331 411.000016,575.665447 411,574.014018 L411,574.014018 L411,368 C411,366.343146 412.343146,365 414,365 L414,365 Z M477.53125,489 L467,489 C466.447715,489 466,489.447715 466,490 L466,490 L466,533 C466,533.552285 466.447715,534 467,534 L467,534 L477.53125,534 C497.177083,534 507,526.5 507,511.5 C507,496.5 497.177083,489 477.53125,489 L477.53125,489 Z M476.125,407 L467,407 C466.447715,407 466,407.447715 466,408 L466,408 L466,447 C466,447.552285 466.447715,448 467,448 L467,448 L476.125,448 C493.375,448 502,441.166667 502,427.5 C502,413.833333 493.375,407 476.125,407 L476.125,407 Z" id="Combined-Shape" fill-rule="nonzero"></path>
            <path d="M636.694794,583 C649.660682,583 661.264213,581.264657 671.505386,577.79397 C681.746559,574.323283 690.390485,569.445561 697.437163,563.160804 C704.483842,556.876047 709.839318,549.324958 713.503591,540.507538 C717.167864,531.690117 719,521.840871 719,510.959799 C719,494.825796 714.818971,481.740369 706.456912,471.703518 C698.094853,461.666667 684.894075,453.646566 666.854578,447.643216 C662.344704,446.142379 657.787852,444.735343 653.184022,443.422111 C648.580192,442.108878 644.44614,440.561139 640.781867,438.778894 C637.117594,436.99665 634.157989,434.886097 631.903052,432.447236 C629.648115,430.008375 628.520646,426.912898 628.520646,423.160804 C628.520646,417.720268 630.775583,413.311558 635.285458,409.934673 C639.795332,406.557789 645.620586,404.869347 652.761221,404.869347 C658.398564,404.869347 664.223818,406.041876 670.236984,408.386935 C673.868178,409.803054 680.473923,413.457946 690.05422,419.351609 C691.465419,420.219749 693.313191,419.779522 694.181338,418.368327 C694.280251,418.207541 694.363767,418.037779 694.430775,417.861297 L709.264722,378.792702 C709.827011,377.31183 709.141078,375.648986 707.698252,374.995222 C694.601769,369.061039 684.463573,365.183234 677.283662,363.361809 C665.821065,360.453936 654.828247,359 644.305206,359 C633.030521,359 622.836326,360.688442 613.722621,364.065327 C604.608917,367.442211 596.904548,372.179229 590.609515,378.276382 C584.314482,384.373534 579.428785,391.690117 575.952424,400.226131 C572.476062,408.762144 570.737882,418.283082 570.737882,428.788945 C570.737882,439.294807 572.382107,447.971524 575.670557,454.819095 C578.959007,461.666667 583.280969,467.341709 588.636445,471.844221 C593.991921,476.346734 600.099042,479.958124 606.95781,482.678392 C613.816577,485.39866 620.816278,487.884422 627.956912,490.135678 C633.970078,492.19933 639.090664,494.075377 643.318671,495.763819 C647.546679,497.452261 650.976062,499.281407 653.606822,501.251256 C656.237582,503.221106 658.116697,505.378559 659.244165,507.723618 C660.371634,510.068677 660.935368,512.835846 660.935368,516.025126 C660.935368,521.278057 658.727409,525.968174 654.31149,530.095477 C649.895572,534.222781 643.177738,536.286432 634.157989,536.286432 C626.265709,536.286432 617.235967,534.541532 608.127375,530.095477 C602.523799,527.360279 593.70682,522.525156 581.676437,515.590107 C580.241006,514.762644 578.406567,515.255492 577.579099,516.69092 C577.493291,516.839773 577.420429,516.995723 577.361317,517.157048 L562.852605,556.753515 C562.356968,558.106207 562.892827,559.620228 564.129044,560.359959 C577.1472,568.149794 586.545959,573.129806 592.325322,575.299992 C609.105742,581.601144 625.433802,583 636.694794,583 Z" id="Path" fill-rule="nonzero"></path>
            <path d="M22.0139343,262 L733.475757,262 C735.132611,262 736.475757,263.343146 736.475757,265 C736.475757,265.401082 736.395332,265.798091 736.239237,266.167552 L718.917011,307.167552 C718.447774,308.278191 717.359227,309 716.153531,309 L4.5397094,309 C2.88285515,309 1.5397094,307.656854 1.5397094,306 C1.5397094,305.595745 1.62141214,305.19566 1.77991084,304.823772 L19.2541358,263.823772 C19.7255168,262.717765 20.8116646,262 22.0139343,262 Z" id="Rectangle"></path>
        </g>
    </g>
</svg>